<svg xmlns="http://www.w3.org/2000/svg" width="1196.54" height="244.43" viewBox="0 0 1196.54 244.43"><defs><style>.cls-1{fill:#02163b;}.cls-2{fill:#05193d;}</style></defs><title>Asset 1</title><g id="Layer_2" data-name="Layer 2"><g id="Layer_1-2" data-name="Layer 1"><g id="YQnfPx.tif"><path class="cls-1" d="M0,63.49q.08-29,0-57.95V0c2,1,3.41,1.7,4.8,2.5q50,28.83,99.85,57.72a48.77,48.77,0,0,1,10,7.37c8.41,8.36,8.41,19.07,0,27.45a48.12,48.12,0,0,1-9.58,7.09c-11.13,6.62-22.4,13-34.42,20,3.65,2.13,6.72,3.94,9.81,5.73q12.09,7,24.2,14c1.59.91,3.19,1.81,4.69,2.85,15.34,10.53,15.81,26.84-.11,36.38-35.81,21.45-72.15,42-109,63.38-.11-2.32-.26-4-.26-5.72,0-19.32,0-38.64,0-58,0-1.54.69-7.55.85-8.15,2.53-9.52,8.84-15.65,17.2-20.35,15.81-8.89,31.45-18.08,47.16-27.15,1.49-.86,3-1.78,4.92-3-2.12-1.29-3.5-2.18-4.92-3C48.93,109.74,32.67,100.29,16.34,91,8.93,86.72,3.66,80.86,1.13,72.61A77.22,77.22,0,0,1,0,63.49Z"/><path class="cls-2" d="M962.14,177.3H938.72c0-3,0-5.81,0-8.59,0-15.49.09-31-.2-46.47-.16-8.49-3.34-12.47-9.38-13.17-7.75-.89-13.59,3-15.59,10.84a41.88,41.88,0,0,0-1.15,9.87c-.12,14.16,0,28.32,0,42.47v5.08h-23.7c-.09-1.72-.24-3.31-.24-4.9q0-23.25,0-46.48c0-1.83,0-3.66-.12-5.49-.48-6.23-3-10-7.56-11.15-5.67-1.49-12.36.43-14.81,5.54a36.38,36.38,0,0,0-3.58,14.24c-.46,14.31-.17,28.64-.18,43v5.2H838.71V90.79h19.61c.72,3.83,1.47,7.85,2.44,13,5.72-10.19,14-15.06,24.93-15.28,12.18-.25,18.77,3.84,24,15.4a18.37,18.37,0,0,0,1.45-1.7A30.37,30.37,0,0,1,947,90.14c9.62,3.42,14.66,11,14.92,20.52C962.54,132.78,962.14,154.92,962.14,177.3Z"/><path class="cls-2" d="M167.35,177V67.14c12.17,0,24.12-.16,36.07.06,6.47.11,13.06.16,19.35,1.45,12.58,2.57,19.74,10.47,21.32,22.09,1.8,13.14-3,22.69-14.58,29a14,14,0,0,0-1.35,1c.71.34,1.26.67,1.84.88,12.88,4.73,18.7,12.52,18.8,25.17.09,13.4-6.43,23-19,27.56-3.42,1.24-7.06,2.51-10.62,2.57C202.08,177.18,185,177,167.35,177Zm24-19.64c8.33-.4,16.29-.28,24.09-1.31,5.94-.77,8.68-5.17,8.83-11.49s-2.36-11-8.29-11.83c-8.06-1.16-16.3-1-24.63-1.43Zm.1-44.17c4.86,0,9.33,0,13.81,0a35.4,35.4,0,0,0,4-.17c7.21-.88,10.92-5.1,11-12.4s-3.49-11.92-10.72-12.51c-5.9-.48-11.88-.09-18.06-.09Z"/><path class="cls-1" d="M465.4,176.84v-109c.22-.18.48-.56.74-.56,16.14.16,32.39-.8,48.39.8,24.59,2.47,38.24,16.38,42.17,40.78a76.8,76.8,0,0,1-1.77,33.67c-5.86,20.33-19.88,32.06-40.46,34C498.33,178.06,481.93,176.84,465.4,176.84Zm24-19.92c5.64,0,10.8.35,15.9-.07,15.48-1.29,24.15-8.87,26.18-24.41a82,82,0,0,0-.74-24.22c-1.9-11-9.14-18.18-20.39-19.7-6.79-.92-13.81-.17-20.95-.17Z"/><path class="cls-2" d="M576.72,215.89v-18.5c9.76-.66,16.08-5.6,18.49-15.76q-15.65-44.73-31.76-90.78h26l18,62.41,18.26-62.43h25.09c-2.73,7.78-5.28,15.11-7.88,22.43-8.22,23.21-16.3,46.47-24.8,69.59a101.37,101.37,0,0,1-9.32,19.24C601.49,213.59,590.1,216.68,576.72,215.89Z"/><path class="cls-2" d="M339.86,90.66h25.87l18,62.5c6-20.39,12.13-41.35,18.31-62.4h24.79c-.44,1.55-.75,2.93-1.22,4.25-10.48,29.65-20.91,59.32-31.53,88.92a105,105,0,0,1-6.84,14.95c-7.25,13.17-18.88,18-33.8,17v-18.6c7.27-.44,13.3-3.39,16.16-10.37a13.79,13.79,0,0,0,.49-8.93c-9.29-27.24-18.9-54.38-28.41-81.55C341.1,94.75,340.61,93,339.86,90.66Z"/><path class="cls-2" d="M827.51,159.67v17.55c-12.46,4.63-23.1,1.5-30-8.92-7.5,10.62-18.19,12.67-30.07,11-10.71-1.48-18.09-8-20.08-17.46-2.47-11.69,1.45-22.16,10.65-28,7.69-4.88,16.36-6.37,25.26-6.77,3.8-.18,7.61,0,12,0,0-3.12.1-5.9,0-8.66-.29-7-3.5-10.8-9.5-11.31-6.7-.56-11,2.73-12.43,9.54-.2,1-.3,1.94-.53,3.43l-23-4.09c.31-8.88,3.56-16.23,11-20.72,14.93-9,30.72-9.48,46.21-1.69,9.1,4.58,12,13.4,12,23.15.06,11.83-.07,23.66.08,35.48C819,158.77,820.57,160,827.51,159.67ZM795.25,140c-7.13,1.56-13.52,2.44-19.53,4.46-4.37,1.46-5.9,5.67-5.25,10.27.58,4.13,3.28,6.43,7.23,7.23,10,2,17.51-4.08,17.55-14.2C795.26,145.81,795.25,143.83,795.25,140Z"/><path class="cls-2" d="M307.35,127.13c0-3.2,0-5.68,0-8.16-.17-7.46-3.25-11.31-9.41-11.84q-10.35-.88-12.58,10c-.16.8-.23,1.61-.43,3L261.82,116c.41-9,3.76-16.46,11.39-21,14.67-8.69,30.15-9.06,45.36-1.71,9.38,4.53,12.42,13.47,12.55,23.36.16,11.49,0,23,.06,34.47,0,7.74.9,8.64,8.61,8.74v17.19c-12,5-23.35,1.67-30.18-8.91-7.36,10.85-18.11,12.78-30,11.19-10.93-1.46-18.37-8.2-20.26-17.87-2.28-11.69,1.82-22.08,11.12-27.81,7.28-4.49,15.45-6,23.83-6.49C298.43,126.94,302.58,127.13,307.35,127.13ZM307.24,140c-7,1.54-13.4,2.16-19.14,4.4-6.38,2.49-7.66,11.2-2.83,15.31,4.15,3.52,9,2.93,13.72,1.36,4.38-1.45,7.65-4.27,8.18-9.09C307.54,148.59,307.24,145.11,307.24,140Z"/><path class="cls-2" d="M682.63,177.32H659.24V90.88H679c.68,3.93,1.39,8,2.2,12.64.89-1,1.42-1.58,1.82-2.18,8.47-12.58,26.18-16.77,39.42-9.29,7.87,4.45,11.54,11.72,11.68,20.27.36,21.48.12,43,.12,64.85H710.57c0-6.8,0-13.42,0-20,0-11.83.11-23.67-.09-35.49-.12-7.09-3-11.14-8-12.35-6.86-1.64-14.48,1.17-17,7.27a38.61,38.61,0,0,0-2.7,13.54c-.33,14-.12,28-.12,42Z"/><path class="cls-2" d="M1091.79,156.6l19.52-7.29c.44,1.21.82,2.23,1.17,3.25,3.24,9.28,17.79,13.57,25.61,7.56a7.22,7.22,0,0,0-1.56-12.34c-4.62-2.13-9.77-3.11-14.69-4.59-4.13-1.25-8.42-2.13-12.36-3.81-10-4.25-14.6-12.14-14.57-22.87,0-10.93,4.15-19.75,14.51-24.12a51,51,0,0,1,39.41-.4c9.28,3.64,14.28,11.82,14.05,21.82l-21.46,3.09c-3.51-9.22-8.43-12-17.13-9.67-3.48.92-6,2.83-6.16,6.85s1.74,6.45,5.31,7.48c4.78,1.39,9.71,2.29,14.52,3.59a71.24,71.24,0,0,1,10.88,3.53c10.91,4.93,16,13.87,15.35,26.09-.63,11.09-6.76,18.95-18.13,22.47a62.28,62.28,0,0,1-37.37-.1C1098.86,174.12,1093.32,167.19,1091.79,156.6Z"/><path class="cls-2" d="M1066.82,147.45l20.39,6c-.79,13.18-11.75,23.55-26.75,25.67-31.26,4.44-51.48-14.91-49.69-47.63a70.48,70.48,0,0,1,1.61-11.86,40.58,40.58,0,0,1,58.54-27c9.93,5.12,14.59,13.56,15.4,24.89l-20.14,5.35c-.41-1.55-.72-2.79-1.07-4-1.51-5.24-4.09-9.65-9.95-10.68-6.33-1.11-11.91.39-16,5.76-7.24,9.48-7.06,31.43.38,40.76a15.67,15.67,0,0,0,15.5,6c6-.9,9.2-4.89,10.93-10.37C1066.2,149.59,1066.42,148.81,1066.82,147.45Z"/><path class="cls-1" d="M977.28,177.24V90.75h22.87v86.49Z"/><path class="cls-2" d="M988.83,80.54a12.77,12.77,0,1,1,12.62-13.11A12.55,12.55,0,0,1,988.83,80.54Z"/><path class="cls-2" d="M1196.54,101.74a11.3,11.3,0,0,1-22.6.43,11.3,11.3,0,1,1,22.6-.43Zm-6.33,6.44c.74-.15,1.79,0,2.19-.48a9.21,9.21,0,0,0-12.73-13.12c-4,3.11-4.76,8.44-1.9,12.88a9.13,9.13,0,0,0,11.37,2.87c.63-.35.82-1.51,1.21-2.29Z"/><path class="cls-2" d="M1190.35,108l-2.13.15-3.22-4.84-3.2,5.23-1.32-.72V95.59l9.73.6v12Z"/></g></g></g></svg>